<?xml version="1.0" encoding="utf-8"?>
<!-- Generator: Adobe Illustrator 24.2.1, SVG Export Plug-In . SVG Version: 6.00 Build 0)  -->
<svg version="1.1" id="Layer_1" xmlns="http://www.w3.org/2000/svg" xmlns:xlink="http://www.w3.org/1999/xlink" x="0px" y="0px"
	 viewBox="0 0 73.5 73.5" style="enable-background:new 0 0 73.5 73.5;" xml:space="preserve">
<style type="text/css">
	.st0{fill-rule:evenodd;clip-rule:evenodd;fill:#6F9730;}
	.st1{fill-rule:evenodd;clip-rule:evenodd;fill:#302F2F;}
	.st2{fill:#BB252B;}
	.st3{fill:#6F9730;}
</style>
<g>
	<path class="st0" d="M60.5,73.5c-4.6,0-8.3-3.7-8.3-8.3h16.6C68.8,69.8,65,73.5,60.5,73.5L60.5,73.5z"/>
	<path class="st0" d="M22.5,73.5c-4.6,0-8.3-3.7-8.3-8.3c0-4.6,3.7-8.3,8.3-8.3c4.6,0,8.3,3.7,8.3,8.3
		C30.8,69.8,27.1,73.5,22.5,73.5L22.5,73.5z M22.5,62.8c-1.3,0-2.4,1.1-2.4,2.4c0,1.3,1.1,2.4,2.4,2.4c1.3,0,2.4-1.1,2.4-2.4
		C24.9,63.9,23.8,62.8,22.5,62.8L22.5,62.8z"/>
	<path class="st0" d="M55.7,30.8h-7.1c-2,0-3.6-1.6-3.6-3.6c0-2,1.6-3.6,3.6-3.6h7.1V30.8L55.7,30.8z"/>
	<polygon class="st0" points="35.6,9.3 4.7,9.3 4.7,2.4 35.6,2.4 35.6,9.3 	"/>
	<path class="st1" d="M22.5,61.6c-2,0-3.6,1.6-3.6,3.6c0,2,1.6,3.6,3.6,3.6c2,0,3.6-1.6,3.6-3.6C26.1,63.2,24.5,61.6,22.5,61.6
		L22.5,61.6z M22.5,66.4c-0.7,0-1.2-0.5-1.2-1.2c0-0.7,0.5-1.2,1.2-1.2c0.7,0,1.2,0.5,1.2,1.2C23.7,65.9,23.2,66.4,22.5,66.4
		L22.5,66.4z"/>
	<path class="st1" d="M65,53l-2.1-17.9c0.7,0.3,1.5,0.5,2.4,0.5h3.6c1.3,0,2.4-1.1,2.4-2.4v-7.1c0-1.3-1.1-2.4-2.4-2.4H54.5v29.9
		c-1.6,0.8-3,2-4.1,3.3h-5.7l-4.1-14.2H45v-1.2c0-4.2-3.1-7.6-7.1-8.2V2.4V2.3V1.7V1.2c0-0.3-0.1-0.6-0.3-0.8
		C37.4,0.1,37.1,0,36.8,0h-0.6h-0.6h-0.1h-1.1H5.8H4.7H4.7H4.1H3.5C3.2,0,2.9,0.1,2.7,0.3C2.5,0.6,2.4,0.9,2.4,1.2v0.6v0.6v0.1v31
		C1,33.9,0,35.2,0,36.8v2.4c0,2,1.6,3.6,3.6,3.6h4.4C4.6,45,2.4,48.9,2.4,53.3v13h9.5v-1.2c0-5.9,4.8-10.7,10.7-10.7
		c5.9,0,10.7,4.8,10.7,10.7v1.2h40.3v-1.2C73.5,59.6,69.9,54.8,65,53L65,53z M35.6,2.4v7H4.7v-7h0.8h29.3H35.6L35.6,2.4L35.6,2.4z
		 M4.7,2.4L4.7,2.4L4.7,2.4L4.7,2.4z M68.8,26.1l0,7.1h-3.6c-1.1,0-2.1-0.5-2.7-1.3l0,0l0,0c-0.5-0.6-0.8-1.4-0.8-2.2
		c0-2,1.6-3.6,3.6-3.6H68.8L68.8,26.1z M56.9,26.1h3.6c-0.8,1-1.2,2.2-1.2,3.6c0,1.2,0.3,2.2,0.9,3.1l2.3,19.6
		c-0.7-0.1-1.3-0.2-2-0.2c-1.2,0-2.4,0.2-3.6,0.5V26.1L56.9,26.1z M4.7,33.2V11.7h30.8v21.5H4.7L4.7,33.2z M3.6,40.3
		c-0.7,0-1.2-0.5-1.2-1.2v-2.4c0-0.7,0.5-1.2,1.2-1.2h33.2c2.9,0,5.3,2,5.8,4.7H3.6L3.6,40.3z M35.5,64c-0.6-6.6-6.2-11.9-13-11.9
		c-6.8,0-12.4,5.2-13,11.9H4.7V53.3c0-5.9,4.8-10.7,10.7-10.7h22.8L43,59.3h5.9c-0.7,1.4-1.2,3-1.4,4.7H35.5L35.5,64z M49.9,64
		c0.6-5.3,5.1-9.5,10.6-9.5c5.5,0,10,4.2,10.6,9.5H49.9L49.9,64z"/>
	<path class="st2" d="M20.2,28.6c-3.4,0-6.1-2.7-6.1-6.1c0-3.4,2.7-6.1,6.1-6.1c3.4,0,6.1,2.7,6.1,6.1
		C26.3,25.8,23.5,28.6,20.2,28.6L20.2,28.6z M20.2,15.4c-3.9,0-7,3.1-7,7c0,3.9,3.1,7,7,7c3.9,0,7-3.1,7-7
		C27.2,18.6,24,15.4,20.2,15.4L20.2,15.4z M19.6,19.1c-1.2,0.2-2.2,1.1-2.6,2.3c-0.1,0.2-0.2,0.3-0.4,0.3c0,0-0.1,0-0.1,0
		c-0.2-0.1-0.4-0.3-0.3-0.6c0.5-1.5,1.7-2.6,3.3-2.9c0.2,0,0.5,0.1,0.5,0.4C20,18.9,19.9,19.1,19.6,19.1L19.6,19.1z M20.2,17.2
		c-2.9,0-5.2,2.3-5.2,5.2c0,2.9,2.3,5.2,5.2,5.2c2.9,0,5.2-2.3,5.2-5.2C25.4,19.6,23,17.2,20.2,17.2L20.2,17.2z"/>
	<path class="st3" d="M21.8,14.1c0.5-0.4,0.6-1,0.6-1s-0.9,0-1.5,0.5c-0.1,0-0.1,0.1-0.1,0.1c0-0.6-0.6-1-0.6-1s-0.5,0.4-0.6,0.9
		C19,13.2,18,13.1,18,13.1s0,0.6,0.5,1.1C17.7,14,17,14.3,17,14.3s0.6,0.5,1.4,0.7c0.7,0.1,1.4-0.1,1.6-0.1c0.2,0.1,0.9,0.3,1.7,0.2
		c0.9-0.1,1.5-0.6,1.5-0.6S22.6,14.1,21.8,14.1L21.8,14.1z"/>
</g>
</svg>
